<?xml version="1.0" standalone="no"?><!DOCTYPE svg PUBLIC "-//W3C//DTD SVG 1.1//EN" "http://www.w3.org/Graphics/SVG/1.1/DTD/svg11.dtd"><svg t="1689760638032" class="icon" viewBox="0 0 1121 1024" version="1.1" xmlns="http://www.w3.org/2000/svg" p-id="8153" width="218.9453125" height="200" xmlns:xlink="http://www.w3.org/1999/xlink"><path d="M1026.438095 0H92.647619C41.447619 0 0 48.761905 0 114.590476v794.819048C0 975.238095 41.447619 1024 92.647619 1024h936.228571c51.2 0 92.647619-48.761905 92.64762-114.590476V114.590476C1121.52381 48.761905 1080.07619 0 1026.438095 0zM360.838095 441.295238c-48.761905 0-87.771429-41.447619-87.771428-95.085714s39.009524-95.085714 87.771428-95.085714 87.771429 41.447619 87.771429 95.085714-39.009524 95.085714-87.771429 95.085714c85.333333 0 156.038095 73.142857 156.038095 165.790476H207.238095c0-92.647619 68.266667-165.790476 153.6-165.790476z m521.752381 334.019048H238.933333c-19.504762 0-31.695238-17.066667-31.695238-36.571429s14.628571-36.571429 31.695238-36.571428h643.657143c19.504762 0 31.695238 17.066667 31.695238 36.571428s-14.628571 36.571429-31.695238 36.571429z m0-190.171429h-243.809524c-19.504762 0-31.695238-17.066667-31.695238-36.571428s14.628571-36.571429 31.695238-36.571429h243.809524c19.504762 0 31.695238 17.066667 31.695238 36.571429s-14.628571 36.571429-31.695238 36.571428z m0-190.171428h-156.038095c-19.504762 0-31.695238-17.066667-31.695238-36.571429s14.628571-36.571429 31.695238-36.571429h156.038095c19.504762 0 31.695238 17.066667 31.695238 36.571429s-14.628571 36.571429-31.695238 36.571429z" fill="#1296db" p-id="8154"></path></svg>